<?xml version="1.0" encoding="UTF-8"?>
<svg id="Layer_1_copy" data-name="Layer 1 copy" xmlns="http://www.w3.org/2000/svg" viewBox="0 0 549.11 288.37">
  <defs>
    <style>
      .cls-1 {
        stroke-width: 0px;
      }
    </style>
  </defs>
  <path class="cls-1" d="M136.95,118.25c3.27,13.81,6.45,27.64,9.71,41.45,2.73,11.6,5.54,23.18,8.28,34.78,1.5,6.33,2.84,12.69,4.42,19,2.54,10.11,5.23,20.17,7.85,30.26.36.1.72.2,1.09.3.48-.83,1.16-1.6,1.41-2.49,4.18-14.78,8.44-29.54,12.38-44.39,2.95-11.13,5.48-22.37,8.19-33.57.8-3.29,1.56-6.59,2.47-10.43.48,1.34.78,2.06,1.01,2.81,3.63,11.87,7.28,23.73,10.87,35.6,2.87,9.52,5.53,19.11,8.54,28.59,2.59,8.16,5.54,16.21,8.39,24.29.18.51.83.85,1.4,1.41,1.31-5.4,2.46-10.29,3.69-15.16,2.74-10.89,5.71-21.72,8.23-32.65,2.75-11.9,5.05-23.91,7.63-35.85,3.16-14.59,8.03-28.65,13.73-42.4,2.44-5.89,5.34-11.82,11.65-14.89.46-.22.68-.94,1.17-1.66h-36.74c.31.72.37,1.3.68,1.51,6.97,4.73,11.27,10.67,9.7,19.68-.92,5.26-1.22,10.63-2.16,15.88-1.34,7.47-2.99,14.88-4.53,22.31-2.21,10.68-4.44,21.36-6.73,32.43-3.21-10.81-6.4-21.16-9.36-31.57-5.2-18.28-10.26-36.61-15.41-54.91-1.48-5.27-1.54-5.26-6.98-4.99-.19,0-.37.15-.84.35-6.51,29.17-13.06,58.52-19.6,87.86-.69-.82-.68-1.54-.83-2.21-2.16-9.71-4.47-19.38-6.5-29.11-2.88-13.8-5.55-27.64-8.32-41.47-1.02-5.09-1.83-10.08,3.91-13.24.71-.39.99-1.57,1.81-2.96h-40.75c.32,2.37,0,3.22,1.83,4.24.02.01.03.02.05.03,5.55,2.9,7.29,5.33,8.67,11.15Z"/>
  <path class="cls-1" d="M126.08,102.83h-.08c.91-1.35,1.59-2.29,2.2-3.28,5.17-8.43,9.46-17.21,9.48-27.37.02-7.39-1.58-14.53-4.62-21.28-3.9-8.65-10.3-15.09-18.8-19.05-8.27-3.85-17.24-5.1-26.34-4.97-9.33.13-18.66.47-27.98.56-10.46.1-20.93.02-31.39.02-8.75,0-17.51-.02-26.26.03-.76,0-1.51.49-2.27.76.64.38,1.24.9,1.94,1.13,5.04,1.62,10.62,2.31,15.05,4.95,9.47,5.63,13.26,15.47,14.76,25.7,1.6,10.9,2.45,22.01,2.48,33.03.12,35.48-.17,70.97-.59,106.45-.08,6.39-1.11,12.84-2.45,19.11-1.25,5.88-4.85,10.39-10.86,12.35-3.45,1.13-7,1.97-10.47,3.01-.6.18-1.07.76-2.24,1.62,26.26.35,51.55.68,77.7,1.02-1.14-.97-1.7-1.7-2.43-2.02-4.14-1.84-8.43-3.37-12.46-5.43-4.26-2.18-7.87-5.46-8.65-10.36-1.03-6.47-1.78-13.04-1.86-19.58-.25-18.01-.08-36.02-.08-54.03v-4.02c4.43,0,8.67-.51,12.71.16,3.29.55,6.77,1.9,8.26,5.61,3.24,8.05,6.67,16.03,9.67,24.16,6.14,16.64,11.45,33.61,18.22,49.98,8.07,19.5,17.93,38.1,34.84,51.79,5.94,4.81,12.12,9.33,19.38,11.89,11.16,3.93,22.6,4.41,34.31,2.52,15.37-2.48,28-9.42,37.7-21.61.65-.82.87-1.98,1.29-2.98-.24-.18-.47-.36-.71-.53-.83.57-1.78,1.04-2.49,1.74-5.27,5.23-11.9,7.74-18.92,9.25-5.94,1.27-11.94,1.62-18.07.75-6.4-.9-12.67-2.04-18.57-4.71-10.29-4.66-18.42-11.88-25.18-20.88-5.82-7.75-11.93-15.33-15.73-24.29-4.92-11.61-9.58-23.34-13.84-35.21-3.62-10.09-6.31-20.52-9.8-30.66-2.87-8.33-6.99-16.04-13.96-21.82-2.18-1.81-4.39-3.59-6.48-5.29,5.84-3.94,11.72-7.41,17.01-11.62,5.11-4.08,9.68-8.84,14.58-13.47,0,0,0,0,0,0,.45-.42,1.35-1.97,2.03-3.13ZM109.67,87.57c-1.52,13.8-7.32,25.6-18.55,34.6-8.19,6.56-17.17,10.29-27.55,10.99-2.77.19-3.91-.73-3.81-3.72.21-6.33.07-12.67.07-19,0-4.73-.07-9.45.01-14.18.15-9.02.3-18.04.62-27.06.28-8.08.75-16.15,1.2-24.22.09-1.67.18-3.45.8-4.95.46-1.11,1.76-2.61,2.73-2.64,6.84-.23,13.73-.66,20.25,2.38,7.46,3.47,12.91,8.98,17.25,15.85,6.21,9.84,8.22,20.75,6.98,31.96Z"/>
  <path class="cls-1" d="M357.35,159.9c.23-8.51-.68-17.11-1.74-25.58-1.24-9.95-4.03-19.48-10.17-27.73-5.81-7.8-13.61-12-23.25-12.01-7.92-.02-14.84,3.2-20.4,8.83-3.73,3.77-7.08,7.93-10.09,11.34,0-19.54-.07-39.7.06-59.86.03-4.25.47-8.55,1.24-12.74,2.7-14.68,9.48-27.51,18.31-39.37.45-.6.63-1.41.94-2.12-.25-.22-.5-.44-.75-.66-1.24.85-2.62,1.56-3.7,2.58-6.46,6.16-12.6,12.68-19.31,18.54-10.2,8.9-21.62,15.91-34.61,20.14-.96.31-1.8.96-2.7,1.46.66.76,1.22,1.68,2.01,2.26,3.93,2.85,7.16,6.26,9.32,10.66,4.83,9.81,6.44,20.5,6.55,31.1.31,28.52-.19,57.06-.44,85.59-.1,11.03-.29,22.06-.61,33.08-.26,8.88-4.01,16.35-9.72,23.01-1.94,2.26-3.48,4.87-5.2,7.31.27.36.53.71.8,1.07,1.96-.69,3.87-1.72,5.88-2.02,8.95-1.33,17.87-.99,26.52,1.82,8.16,2.65,16.32,2.68,24.58.88,8.02-1.75,13.95-7.03,19.53-12.42,8.02-7.75,14.14-16.88,18.82-27.18,5.53-12.18,7.79-24.92,8.15-37.99ZM335.57,179c-.71,12.35-1.94,24.75-7.95,35.89-2.49,4.62-6.05,8.08-12.32,7.73-6.34-.35-12.62-.51-17.64-4.82-2.03-1.75-4-4.32-4.59-6.85-1.17-5.08-1.71-10.37-1.9-15.59-.3-7.93-.08-15.89-.08-23.83,0-8.15-.22-16.3.06-24.44.28-8.02,1.07-16.04,4.96-23.3,2.25-4.2,5.11-7.66,10.45-8.32,4.68-.58,8.61.98,12.12,3.57,7.97,5.89,11.82,14.39,13.92,23.75,2.67,11.92,3.68,24.04,2.98,36.21Z"/>
  <path class="cls-1" d="M443.19,159.25c-.77-8.43-2.83-16.47-7.53-23.73-7.2-11.13-16.92-18.44-30.18-20.58-2.66-.43-5.38-.56-8.01-.82,15.9-24.92,31.69-49.66,47.81-74.93-1.78-.13-2.56-.25-3.33-.24-17.97.19-35.94.22-53.91.66-11.33.27-20.17,5.67-27.08,14.53-4.5,5.76-7.64,12.24-10.07,19.05-1.81,5.08-3.43,10.3-2.15,16.55.83-.83,1.43-1.22,1.75-1.77,3.79-6.45,8.98-11.71,14.43-16.68,1.67-1.52,4.01-2.74,6.21-3.14,5.15-.94,10.39-1.68,15.61-1.82,9.95-.28,19.92-.08,29.88-.07.74,0,1.48.12,2.53.2-4.14,6.57-8.04,12.84-12.03,19.06-12,18.7-24.06,37.36-36.03,56.07-.64,1-.77,2.32-1.18,3.64.9.06,1.13.15,1.29.07,1.52-.71,3-1.52,4.56-2.16,8.37-3.41,16.64-4.57,24.76.83,13.71,9.13,19.9,22.56,21.36,38.32,1.07,11.48-.87,22.78-4.72,33.67-1.61,4.55-3.94,8.58-8.02,11.51-5,3.6-10.43,3.32-15.98,2.25-7.02-1.35-12.7-4.63-16-11.34-3.66-7.44-2.89-15.26-2.38-23.75-.93.24-1.74.37-2.48.68-.43.18-.73.67-1.09,1.02-7.7,7.3-15.45,14.55-23.02,21.98-.83.81-1.23,2.93-.79,4.04,7.25,18.64,24.38,27.38,43.25,22.82,10.98-2.65,20.01-9.22,28.3-16.71,6.42-5.81,10.84-13.05,15.2-20.45,6.01-10.23,9.23-21.14,9.65-32.87.19-5.28-.11-10.6-.59-15.87Z"/>
  <path class="cls-1" d="M502.56,232.23c-.51.79-.66,1.8-.95,2.63h47.5c-1.14-1.42-1.57-2.22-2.22-2.72-3.49-2.69-6.29-5.89-8.32-9.85-5.24-10.18-6.15-21.32-6.41-32.35-.38-15.95.49-31.93.35-47.89-.08-9.04-.93-18.09-1.79-27.1-.46-4.78-2.32-9.4-5.89-12.64-7.04-6.37-15.54-8.7-24.79-6.31-9.03,2.33-15.31,8.83-21.3,15.53-1.82,2.04-3.6,4.12-5.6,6.41v-25.27c-.67.23-1.41.28-1.87.66-2.06,1.73-3.95,3.68-6.06,5.33-2.87,2.25-5.66,4.79-8.9,6.35-7.11,3.41-14.48,6.26-21.72,9.41-.76.33-1.32,1.13-1.78,1.54,5.58,2.58,10.69,4.85,15.69,7.34,1.04.52,2.19,1.81,2.37,2.9.66,3.8,1.28,7.67,1.26,11.51-.08,23.3-.29,46.6-.57,69.9-.13,10.75-3.74,19.71-13.73,25.17-.66.36-1,1.3-1.78,2.37h50.65c-.83-.91-1.22-1.38-1.65-1.81-1.85-1.83-4.21-3.37-5.49-5.54-4.83-8.15-5.09-17.46-5.38-26.5-.61-18.56-.68-37.15-.66-55.73.01-10.17,3.57-19.33,9.44-27.62,5.75-8.12,18.28-4.71,21.41,2.18,4.02,8.86,6.08,18.11,6.24,27.54.35,19.67-.31,39.36-.41,59.05-.05,9.29-2.61,17.73-7.62,25.5Z"/>
</svg>